<?xml version="1.0" standalone="no"?>
<!DOCTYPE svg PUBLIC "-//W3C//DTD SVG 20010904//EN"
 "http://www.w3.org/TR/2001/REC-SVG-20010904/DTD/svg10.dtd">
<svg version="1.0" xmlns="http://www.w3.org/2000/svg"
 width="512.000000pt" height="512.000000pt" viewBox="0 0 512.000000 512.000000"
 preserveAspectRatio="xMidYMid meet">

<g transform="translate(0.000000,512.000000) scale(0.100000,-0.100000)"
fill="#000000" stroke="none">
<path d="M2541 4054 c-12 -26 -81 -180 -153 -343 -401 -908 -705 -1585 -815
-1817 l-29 -61 -104 221 c-57 121 -245 520 -418 886 -345 728 -348 736 -303
807 22 35 95 93 117 93 8 0 11 6 8 15 -5 13 -57 15 -378 15 -357 0 -416 -3
-416 -20 0 -5 25 -22 55 -39 73 -41 127 -91 181 -167 49 -68 62 -96 294 -604
87 -190 298 -649 470 -1020 172 -371 344 -742 381 -824 81 -176 97 -202 111
-188 14 14 58 113 233 522 172 402 308 728 364 868 l41 102 0 160 0 160 85 0
85 0 0 -100 0 -100 70 0 70 0 0 100 0 100 75 0 75 0 0 -100 0 -100 75 0 75 0
0 100 0 100 79 0 80 0 3 -162 3 -163 94 -220 c51 -121 124 -292 161 -380 59
-139 308 -711 370 -848 12 -27 27 -46 33 -44 12 3 57 98 231 477 47 102 128
280 181 395 87 189 558 1231 691 1528 105 234 178 332 299 403 36 21 65 44 65
51 0 10 -78 13 -389 13 -240 0 -392 -4 -396 -10 -3 -5 11 -20 32 -34 81 -51
115 -113 106 -186 -3 -19 -50 -132 -105 -250 -129 -276 -540 -1141 -653 -1375
l-87 -180 -18 40 c-33 77 -493 1112 -555 1250 -34 77 -86 194 -115 260 -119
271 -293 661 -306 687 -8 15 -18 28 -22 28 -5 0 -18 -21 -31 -46z"/>
<path d="M2527 2276 c-87 -31 -97 -57 -97 -246 l0 -150 140 0 140 0 0 156 c0
179 -7 201 -75 234 -48 23 -57 24 -108 6z"/>
</g>
</svg>
